<svg xmlns="http://www.w3.org/2000/svg" width="171.668" height="171.668" viewBox="0 0 171.668 171.668">
  <g id="Group_3" data-name="Group 3" transform="translate(-911.369 -1887)">
    <path id="Path_3" data-name="Path 3" d="M335.637,85.834A85.834,85.834,0,1,1,249.8,0a85.836,85.836,0,0,1,85.834,85.834" transform="translate(747.4 1887)" fill="#3ab54a"/>
    <path id="Path_25" data-name="Path 25" d="M191.783,12.6h47.345c.574.183,1.159.329,1.716.553,2.933,1.186,4.614,3.878,4.618,7.406q.005,16.946,0,33.9a3.073,3.073,0,0,0,.021.737.762.762,0,0,0,.336.481c.751.3,1.522.56,2.411.882-.166-2.238,1.1-3.151,2.864-3.68.813-.246,1.595-.588,2.4-.865a2.72,2.72,0,0,1,3.677,1.671q2.662,7.082,5.265,14.189a2.713,2.713,0,0,1-1.66,3.615c-.865.342-1.754.633-2.615.986-1.231.505-2.446.823-3.615-.163-.737,2.366-1.429,2.933-3.66,3.079-.83,2.625-1.577,3.207-4.414,3.424a2.912,2.912,0,0,1-.325,1.069c-.875,1.045-.661,2.266-.681,3.456-.01.522-.017,1.045-.052,1.564a7.383,7.383,0,0,1-6.437,6.69.938.938,0,0,0-.927.7,7.321,7.321,0,0,1-6.787,4.763q-22.638.016-45.279,0a6.99,6.99,0,0,1-4.224-1.415A7.7,7.7,0,0,1,178.642,89q.021-31.464.01-62.931c0-.111,0-.221,0-.332a7.478,7.478,0,0,1,6.766-7.7c.235-.035.508-.353.616-.6a7.559,7.559,0,0,1,5.389-4.656,2.236,2.236,0,0,0,.36-.166M232.1,84.54a3.706,3.706,0,0,1-4.075-1.453c-.1-.135-.481-.138-.706-.086a3.585,3.585,0,0,1-4.455-2.619,9.88,9.88,0,0,1-.135-1.186c-2.556-.315-4.428-2.885-2.653-5.95a3.03,3.03,0,0,1-.813-.01c-1.57-.477-3.165-.906-4.687-1.512a2.555,2.555,0,0,1-1.37-3.041c.2-.768.46-1.522.7-2.28q1.977-6.143,3.964-12.283a2.756,2.756,0,0,1,3.694-1.913,34.333,34.333,0,0,1,3.428,1.145,3.492,3.492,0,0,1,1.532,1.259,1,1,0,0,0,1.169.581c.273-.042.547-.066.816-.107,1.809-.294,3.6-.827,5.462-.4.733.169,1.453.4,2.241.626.014-.3.038-.571.038-.837q0-14.227,0-28.451a11.785,11.785,0,0,0-.08-1.4,5.072,5.072,0,0,0-6.136-4.161v.886c0,3.68.024,7.364-.028,11.048a2.112,2.112,0,0,1-.605,1.4c-.5.46-1.069.08-1.563-.256-1.864-1.266-3.743-2.508-5.593-3.795a.954.954,0,0,0-1.3-.017c-1.934,1.353-3.912,2.639-5.86,3.978a1.972,1.972,0,0,1-1.951.242c-.706-.291-.664-1-.664-1.64V20.381a3.94,3.94,0,0,0-.432-.059c-8.741,0-17.482-.017-26.223.031a4.531,4.531,0,0,0-4.31,2.93,7.472,7.472,0,0,0-.491,2.878q-.041,31.381-.021,62.758c0,.3,0,.605.014.906a5.081,5.081,0,0,0,5.147,4.94q22.472.01,44.944,0a4.967,4.967,0,0,0,4.967-3.905,27.8,27.8,0,0,0,.246-3.954A3.993,3.993,0,0,1,232.1,84.54m11.034-30.011v-.64c0-11.159-.045-22.318.024-33.477a5.4,5.4,0,0,0-5.524-5.535c-14.756.059-29.516.028-44.276.028-.221,0-.439,0-.661.007-1.951.08-4,1.674-4.244,3.089h.969q20.531,0,41.063.017a10.074,10.074,0,0,1,3.155.446,7.428,7.428,0,0,1,4.946,7.416q.01,14.061,0,28.119v.809c1.536-.093,2.975-.183,4.545-.28M222.725,69.549l.592-.18a3.375,3.375,0,0,1,4.168,1.6c.422.785.782,1.3,1.757,1.287a1.9,1.9,0,0,1,1.238.578A26.881,26.881,0,0,1,232.21,75a3.71,3.71,0,0,1,3.528,2.325c.865-.495.955-.5,1.8-.055,1.335.7,2.663,1.415,4,2.124,1.207.636,2,.55,2.425-.266s.076-1.494-1.166-2.158c-1.28-.688-2.577-1.353-3.843-2.065a1.058,1.058,0,0,1-.477-1.543,1.105,1.105,0,0,1,1.546-.488,4.766,4.766,0,0,1,.509.27c1.934,1.041,3.86,2.093,5.808,3.11a1.376,1.376,0,0,0,2.134-.875,1.41,1.41,0,0,0-.892-1.588c-1.882-1.017-3.77-2.027-5.631-3.079a1.18,1.18,0,0,1-.4-2.013c.4-.446.934-.3,1.432-.031,2.484,1.349,4.967,2.7,7.472,4.009.377.2,1.079.377,1.256.2a1.929,1.929,0,0,0,.429-1.391,1.978,1.978,0,0,0-.657-1.166,9.358,9.358,0,0,0-1.806-1.287c-2.1-1.135-4.272-2.138-6.316-3.359a3.855,3.855,0,0,0-3.521-.294c-1.242.436-2.477.9-3.743,1.238a5.54,5.54,0,0,1-6.13-1.934c-.7-.834-.761-1.238-.086-2.12.647-.847,1.4-1.612,2.124-2.4.882-.969,1.771-1.93,2.781-3.023a19.574,19.574,0,0,0-2.992-.218c-1.474.107-2.926.481-4.4.591a1.057,1.057,0,0,0-1.114.9c-.751,2.408-1.539,4.8-2.311,7.2-.4,1.266-.8,2.539-1.238,3.94m4.953-49.181h-12.8V31c.339-.208.595-.349.837-.512,1.664-1.114,3.331-2.224,4.978-3.362a1.367,1.367,0,0,1,1.74-.024c.806.567,1.633,1.11,2.452,1.66.9.6,1.806,1.2,2.795,1.861Zm4.255,43.024a3.334,3.334,0,0,0,3.836.93c1.487-.47,2.954-1.02,4.459-1.429a5.019,5.019,0,0,1,3.943.588c2.729,1.543,5.535,2.954,8.34,4.438-1.135-3.047-2.273-6.116-3.3-8.89-1.384-.356-2.539-.63-3.68-.958a16.642,16.642,0,0,1-1.685-.657,6,6,0,0,0-6.486.948c-1.868,1.57-3.587,3.314-5.424,5.03m22.678-9.326c-.827.3-1.467.536-2.11.775-2.089.768-2.093.768-1.332,2.823,1.515,4.082,3.047,8.16,4.542,12.252.246.671.543.854,1.214.564a28.615,28.615,0,0,1,2.695-1c.664-.214.768-.557.522-1.18-.6-1.529-1.145-3.082-1.716-4.621-1.1-2.954-2.19-5.908-3.3-8.855a3.668,3.668,0,0,0-.512-.754M215.4,69.306c.156.145.332.425.574.512,1,.367,2.027.668,3.044,1,.547.176.841.031,1.027-.56q2.2-6.932,4.466-13.847c.2-.616-.007-.851-.547-1.017-.944-.284-1.9-.557-2.816-.913-.706-.277-.972-.031-1.176.63-1.027,3.265-2.089,6.52-3.141,9.779-.453,1.408-.913,2.816-1.432,4.414m14.528,6.365c-.453-.474-.73-.941-1.138-1.142a1.066,1.066,0,0,0-1.432.467c-.754,1.339-1.484,2.691-2.169,4.064a1.035,1.035,0,0,0,.387,1.446c.4.194,1.266.263,1.408.048,1.027-1.532,1.923-3.155,2.944-4.884m8.717,13.612a5.027,5.027,0,0,0,4.383-5.95,3.281,3.281,0,0,1-4.383,1.951Zm-15.4-12.467a2.467,2.467,0,0,0,.785-.619c.578-.934,1.076-1.913,1.567-2.9a1.215,1.215,0,0,0-.595-1.66,1.071,1.071,0,0,0-1.522.363,26.322,26.322,0,0,0-1.695,3.193c-.363.823.277,1.622,1.46,1.619m10.45,1.536a4.146,4.146,0,0,0-.969-.91,1.092,1.092,0,0,0-1.47.543c-.484.827-.941,1.671-1.356,2.536a1.259,1.259,0,0,0,2.238,1.155c.47-.8.893-1.629,1.318-2.459a5.5,5.5,0,0,0,.239-.865m.183,4.836a7.076,7.076,0,0,0,1.359,1.335c.616.329.993-.211,1.269-.709.235-.429.467-.865.671-1.308s.436-.934-.055-1.342c-.522-.439-1.193-.678-1.705-.163a15.971,15.971,0,0,0-1.539,2.186m5.932-2.024c-.09.654-.176,1.259-.259,1.864.574.384.951.131,1.193-.37.277-.585-.028-1.062-.934-1.494" transform="translate(783.482 1917.997)" fill="#fff"/>
    <path id="Path_26" data-name="Path 26" d="M200.367,21.094H216.69c.249,0,.495-.007.74.007a1.072,1.072,0,0,1,1.1,1.11,1.1,1.1,0,0,1-.972,1.155,4.067,4.067,0,0,1-.823.024q-16.443.005-32.893,0c-.166,0-.332,0-.495,0a1.209,1.209,0,0,1-1.314-1.18c.01-.668.533-1.114,1.353-1.114q8.494-.01,16.984,0" transform="translate(791.814 1938.868)" fill="#fff"/>
    <path id="Path_27" data-name="Path 27" d="M191.895,29c-2.747,0-5.493.01-8.24-.01a2.007,2.007,0,0,1-1.159-.28,1.32,1.32,0,0,1-.443-1.038,1.615,1.615,0,0,1,.713-.9,1.662,1.662,0,0,1,.882-.118q8.281-.01,16.562-.007c.055,0,.107,0,.163,0,.927.035,1.494.505,1.467,1.207-.028.681-.567,1.128-1.46,1.135-2.826.01-5.656,0-8.485,0" transform="translate(791.856 1952.527)" fill="#fff"/>
    <path id="Path_28" data-name="Path 28" d="M191.925,31.743q-4.244,0-8.489,0c-.906,0-1.463-.515-1.4-1.242.055-.668.557-1.055,1.411-1.055q5.069-.01,10.139,0c2.279,0,4.559,0,6.839,0,.889,0,1.429.425,1.456,1.107.024.709-.55,1.19-1.467,1.19q-4.244.01-8.489,0" transform="translate(791.815 1959.392)" fill="#fff"/>
    <path id="Path_29" data-name="Path 29" d="M191.92,26.182h-7.994c-.246,0-.495,0-.74-.01a1.1,1.1,0,0,1-1.145-1.065,1.13,1.13,0,0,1,1.083-1.218c.574-.045,1.155-.017,1.73-.017H200.1a4.066,4.066,0,0,1,.74.024,1.106,1.106,0,0,1,1.02,1.193,1.073,1.073,0,0,1-1.124,1.083c-.495.014-.989.01-1.484.01H191.92" transform="translate(791.817 1945.68)" fill="#fff"/>
  </g>
</svg>
