<svg xmlns="http://www.w3.org/2000/svg" width="99" height="28" viewBox="0 0 99 28">
  <g id="Group_2" data-name="Group 2" transform="translate(-575 -589)">
    <rect id="Rectangle_5" data-name="Rectangle 5" width="99" height="28" rx="3" transform="translate(575 589)" fill="#3ab54a"/>
    <g id="Group_1" data-name="Group 1" transform="translate(1.988 44)">
      <path id="Union_1" data-name="Union 1" d="M5.22,19.417a5.831,5.831,0,0,1-2.206-.77A5.971,5.971,0,0,1,.5,15.762a6.064,6.064,0,0,1-.47-3.037,6.426,6.426,0,0,1,.8-2.532A5.637,5.637,0,0,1,4.645,7.309,5.931,5.931,0,0,1,9,7.953a6.1,6.1,0,0,1,2.314,2.481,5.92,5.92,0,0,1,.673,3.193,6.475,6.475,0,0,1-.828,2.817A5.852,5.852,0,0,1,9.81,18.053,6.106,6.106,0,0,1,8,19.126a5.692,5.692,0,0,1-1.958.348,5.955,5.955,0,0,1-.822-.057Zm.236-8.53A2.273,2.273,0,0,0,3.92,12.05a2.6,2.6,0,0,0-.32,1.021,2.44,2.44,0,0,0,.189,1.224A2.41,2.41,0,0,0,4.8,15.458a2.331,2.331,0,0,0,.889.31,2.3,2.3,0,0,0,1.119-.117,2.459,2.459,0,0,0,.73-.433,2.333,2.333,0,0,0,.544-.649,2.606,2.606,0,0,0,.334-1.134,2.384,2.384,0,0,0-.271-1.288,2.462,2.462,0,0,0-.933-1,2.358,2.358,0,0,0-1.19-.323,2.664,2.664,0,0,0-.566.063Zm5.767-1.808a.951.951,0,0,1-.18-.556.6.6,0,0,1,.194-.455l3.3-2.974.214-.18a1.209,1.209,0,0,1,1.667.319,1.285,1.285,0,0,1-.233,1.725l-.234.151L12.162,9.384a.514.514,0,0,1-.28.08.842.842,0,0,1-.659-.385ZM9.369,7.317a.939.939,0,0,1-.387-.432.6.6,0,0,1,0-.5l1.823-4.1.123-.255a1.212,1.212,0,0,1,1.649-.411,1.279,1.279,0,0,1,.477,1.67l-.153.237L10.348,7.2a.592.592,0,0,1-.512.251A.926.926,0,0,1,9.369,7.317ZM6.956,6.552a.741.741,0,0,1-.728-.681l.02-4.511.01-.284A1.237,1.237,0,0,1,7.6.006,1.251,1.251,0,0,1,8.7,1.329l-.045.28L7.8,6.033a.588.588,0,0,1-.286.4.878.878,0,0,1-.458.124.982.982,0,0,1-.1-.005Z" transform="translate(582.014 550)" fill="#fff" stroke="rgba(0,0,0,0)" stroke-miterlimit="10" stroke-width="1"/>
      <g id="Group_3" data-name="Group 3" transform="translate(1.922 1)">
        <path id="Path_1" data-name="Path 1" d="M10.206-3.582a3.509,3.509,0,0,1-.513,1.854A3.618,3.618,0,0,1,8.181-.378a5.327,5.327,0,0,1-2.421.5A5.7,5.7,0,0,1,2.232-.918,3.783,3.783,0,0,1,.72-3.834H4A1.729,1.729,0,0,0,4.509-2.7a1.578,1.578,0,0,0,1.125.414A1.306,1.306,0,0,0,6.57-2.61a1.134,1.134,0,0,0,.342-.864,1.116,1.116,0,0,0-.315-.81,2.47,2.47,0,0,0-.783-.531q-.468-.207-1.3-.5a15.912,15.912,0,0,1-1.971-.8A3.63,3.63,0,0,1,1.233-7.263,3.334,3.334,0,0,1,.684-9.252a3.349,3.349,0,0,1,.576-1.962,3.661,3.661,0,0,1,1.593-1.269,5.81,5.81,0,0,1,2.331-.441,5.226,5.226,0,0,1,3.375,1.008A3.846,3.846,0,0,1,9.972-9.144H6.642a1.708,1.708,0,0,0-.459-1,1.35,1.35,0,0,0-1-.369,1.287,1.287,0,0,0-.873.288,1.058,1.058,0,0,0-.333.846,1.074,1.074,0,0,0,.3.765,2.263,2.263,0,0,0,.747.513q.45.2,1.3.5a14.245,14.245,0,0,1,2,.819A3.822,3.822,0,0,1,9.648-5.6,3.368,3.368,0,0,1,10.206-3.582Zm4.788-6.7v2.664h4.3v2.322h-4.3v2.826h4.842V0h-7.92V-12.726h7.92v2.448Zm9.666,7.92h4.1V0H21.582V-12.726H24.66Zm8.6-7.92v2.664h4.3v2.322h-4.3v2.826h4.842V0h-7.92V-12.726h7.92v2.448Zm12.4-2.574a6.225,6.225,0,0,1,4.023,1.278A5.848,5.848,0,0,1,51.75-8.118H48.492A2.989,2.989,0,0,0,47.385-9.5a3.094,3.094,0,0,0-1.773-.5,2.7,2.7,0,0,0-2.178.99,3.991,3.991,0,0,0-.828,2.646,3.955,3.955,0,0,0,.828,2.637,2.711,2.711,0,0,0,2.178.981,3.094,3.094,0,0,0,1.773-.5,3,3,0,0,0,1.107-1.368H51.75a5.879,5.879,0,0,1-2.061,3.447A6.2,6.2,0,0,1,45.666.108a6.347,6.347,0,0,1-3.258-.819,5.559,5.559,0,0,1-2.169-2.3,7.208,7.208,0,0,1-.765-3.366,7.208,7.208,0,0,1,.765-3.366,5.559,5.559,0,0,1,2.169-2.3A6.347,6.347,0,0,1,45.666-12.852Zm16.956.126v2.448H59.166V0h-3.1V-10.278H52.65v-2.448Z" transform="translate(599 565)" fill="#fff"/>
      </g>
    </g>
  </g>
</svg>
