<svg xmlns="http://www.w3.org/2000/svg" width="171.668" height="171.668" viewBox="0 0 171.668 171.668">
  <g id="Group_4" data-name="Group 4" transform="translate(-1246.147 -1887)">
    <path id="Path_4" data-name="Path 4" d="M432.419,85.834A85.834,85.834,0,1,1,346.585,0a85.833,85.833,0,0,1,85.834,85.834" transform="translate(985.396 1887)" fill="#3ab54a"/>
    <path id="Path_30" data-name="Path 30" d="M325.4,37.355c5.393-3.11,10.685-6.15,15.967-9.218a5.6,5.6,0,1,1,6.15,9.367c-1.809,1.159-3.712,2.179-5.576,3.252q-13.449,7.752-26.9,15.5a13.491,13.491,0,0,1-7.07,1.861c-3.7-.045-7.4-.08-11.093.01-3.276.08-6.379-.339-9.257-2.473,0,1.3,0,2.411,0,3.525-.007,1.259-.467,1.719-1.743,1.723H275.389c-1.28,0-1.743-.46-1.743-1.719q-.005-13.672,0-27.344c0-1.218.47-1.685,1.688-1.688q5.287-.005,10.571,0c1.259,0,1.709.467,1.712,1.754,0,.9,0,1.792,0,2.833,1.93-1.065,3.791-2.006,5.562-3.089a13.644,13.644,0,0,1,11.467-1.429c5.462,1.581,10.972,3.006,16.479,4.438a6.6,6.6,0,0,1,4.272,2.7m-23.705,17.8v.163c2.037,0,4.078-.021,6.116.007a11.358,11.358,0,0,0,5.984-1.6c5.656-3.29,11.335-6.541,17-9.807q7.446-4.291,14.888-8.582a2.793,2.793,0,0,0,1.522-3.137,2.624,2.624,0,0,0-2.459-2.117,3.922,3.922,0,0,0-1.961.533C337.476,33.63,332.2,36.7,326.9,39.738a1.182,1.182,0,0,0-.685,1.148,5.307,5.307,0,0,1-6.486,4.857c-2.954-.74-5.908-1.5-8.859-2.259-1.294-.329-2.594-.64-3.878-1.007a1.4,1.4,0,0,1,.605-2.729,5.047,5.047,0,0,1,.592.138q5.765,1.536,11.533,3.068a2.784,2.784,0,1,0,1.408-5.351q-9.122-2.459-18.254-4.891a9.592,9.592,0,0,0-7.268.83q-3.757,2.039-7.465,4.161a1.178,1.178,0,0,0-.505.861c-.035,4.282-.028,8.561-.01,12.844a1.214,1.214,0,0,0,.277.768,8.491,8.491,0,0,0,5.586,2.937c2.722.169,5.465.038,8.2.038M276.5,58.04h8.285V32.979H276.5Z" transform="translate(1017.099 1953.871)" fill="#fff"/>
    <path id="Path_31" data-name="Path 31" d="M316.889,35.946a16.773,16.773,0,1,1-16.908-16.79,16.751,16.751,0,0,1,16.908,16.79m-2.795-.093A13.98,13.98,0,1,0,300.147,49.9a14.048,14.048,0,0,0,13.947-14.051" transform="translate(1040.952 1934.106)" fill="#fff"/>
    <path id="Path_32" data-name="Path 32" d="M313.386,23.834A11.182,11.182,0,1,1,302.32,12.689a11.146,11.146,0,0,1,11.066,11.145m-9.734-8.15c-.1,1.259-.09,1.245.868,1.909a4.045,4.045,0,0,1,1.868,3.373,1.362,1.362,0,0,1-1.259,1.5,1.386,1.386,0,0,1-1.522-1.238,2.419,2.419,0,0,0-.225-.83,1.26,1.26,0,0,0-1.557-.636,1.328,1.328,0,0,0-1,1.456c.059.761.657,1.2,1.622,1.263a4.143,4.143,0,0,1,3.822,3.162,3.962,3.962,0,0,1-1.826,4.514c-.927.495-.93,1.1-.792,1.9a8.3,8.3,0,0,0,0-16.368m-2.92,16.362c.177-1.245.166-1.228-.789-1.868a3.975,3.975,0,0,1-1.916-3.6,1.259,1.259,0,0,1,1.27-1.3,1.33,1.33,0,0,1,1.48,1.076,4.863,4.863,0,0,0,.221.924,1.252,1.252,0,0,0,1.6.688,1.313,1.313,0,0,0,.972-1.47c-.073-.761-.657-1.173-1.643-1.238a4.156,4.156,0,0,1-3.805-3.189,3.978,3.978,0,0,1,1.854-4.5c.934-.491.9-1.093.768-1.885a8.3,8.3,0,0,0-.014,16.362" transform="translate(1059.838 1918.203)" fill="#fff"/>
    <path id="Path_33" data-name="Path 33" d="M289.635,40.643a13.977,13.977,0,1,1,13.982-13.971,13.956,13.956,0,0,1-13.982,13.971m-.035-2.795a11.183,11.183,0,1,0-11.145-11.2,11.239,11.239,0,0,0,11.145,11.2" transform="translate(1022.069 1918.206)" fill="#fff"/>
    <path id="Path_34" data-name="Path 34" d="M290.569,42.819a17.092,17.092,0,0,1-2.906-2.5,7.411,7.411,0,0,1-1.048-3.058,1.274,1.274,0,0,1,1.294-1.515,1.376,1.376,0,0,1,1.463,1.391,2.8,2.8,0,0,0,2.11,2.677,2.688,2.688,0,0,0,2.871-.979,2.6,2.6,0,0,0,.318-2.868,2.789,2.789,0,0,0-2.584-1.626,5.578,5.578,0,0,1-2.01-10.751c.581-.225.771-.5.7-1.069a4.228,4.228,0,0,1,.01-.958,1.35,1.35,0,0,1,1.377-1.2c.713,0,1.453.515,1.353,1.19-.211,1.377.474,1.906,1.577,2.494a5.026,5.026,0,0,1,2.653,4.524,1.369,1.369,0,0,1-1.276,1.567c-.844.062-1.394-.46-1.508-1.432a2.789,2.789,0,1,0-2.67,2.84,5.5,5.5,0,0,1,5.445,5.808,5.252,5.252,0,0,1-3.445,4.915c-.595.253-.806.54-.737,1.138a3.858,3.858,0,0,1,0,.872,1.349,1.349,0,0,1-1.432,1.235,1.289,1.289,0,0,1-1.332-1.238,15.57,15.57,0,0,1-.01-1.657c-.069.066-.142.128-.211.194" transform="translate(1048.901 1937.089)" fill="#fff"/>
    <path id="Path_35" data-name="Path 35" d="M286.873,20.569c-.007,1.052-.491,1.636-1.256,1.705a1.374,1.374,0,0,1-1.532-1.311c-.183-1.093-.92-1.688-1.768-1.4a1.346,1.346,0,0,0-1.014,1.449,1.436,1.436,0,0,0,1.522,1.273,4.172,4.172,0,0,1,1.83,7.859.913.913,0,0,0-.585,1.01,5.849,5.849,0,0,1,0,1.045,1.36,1.36,0,0,1-1.4,1.266c-.709-.01-1.422-.526-1.335-1.211a2.519,2.519,0,0,0-1.415-2.7,3.394,3.394,0,0,1-1.411-2.785c-.059-.979.419-1.605,1.242-1.681.841-.08,1.387.4,1.539,1.394a1.4,1.4,0,0,0,1.339,1.366,1.3,1.3,0,0,0,1.373-.989c.3-.9-.36-1.7-1.463-1.785a4.131,4.131,0,0,1-4.026-4.531,3.874,3.874,0,0,1,2.207-3.328.9.9,0,0,0,.581-1.014,5.866,5.866,0,0,1,0-1.045A1.341,1.341,0,0,1,282.7,13.9c.778.028,1.4.481,1.325,1.211a2.577,2.577,0,0,0,1.425,2.695,3.415,3.415,0,0,1,1.418,2.76" transform="translate(1029.027 1921.188)" fill="#fff"/>
  </g>
</svg>
