<svg xmlns="http://www.w3.org/2000/svg" width="171.668" height="171.668" viewBox="0 0 171.668 171.668">
  <g id="Group_2" data-name="Group 2" transform="translate(-618.443 -1887)">
    <path id="Path_2" data-name="Path 2" d="M250.954,85.834A85.834,85.834,0,1,1,165.12,0a85.836,85.836,0,0,1,85.834,85.834" transform="translate(539.157 1887)" fill="#3ab54a"/>
    <path id="Path_17" data-name="Path 17" d="M179.41,79.962a10.549,10.549,0,0,1-1.813,3.86,7.843,7.843,0,0,1-5.96,2.888c-1.56.048-3.124.017-4.684.017-5.019-.01-8.364-3.31-8.437-8.329-.014-1.117,0-2.238,0-3.4H111.48c0,1.065-.01,2.1,0,3.127a8.345,8.345,0,0,1-1.851,5.714,7.683,7.683,0,0,1-5.8,2.861q-2.817.1-5.638,0a7.8,7.8,0,0,1-7.579-7.641q-.1-13.833.017-27.666a10,10,0,0,1,3.127-6.942,5.069,5.069,0,0,1,.63-.592,11.786,11.786,0,0,0,4.2-6.237c1.612-4.718,3.424-9.367,5.168-14.04a7.919,7.919,0,0,1,8-5.559q23.805-.005,47.614,0a7.957,7.957,0,0,1,8.1,5.666c2.079,5.593,4.137,11.194,6.244,16.777a5.874,5.874,0,0,0,1.124,1.8c1.308,1.463,2.819,2.771,3.552,4.656.4,1.038.681,2.127,1.014,3.2Zm-44.48-8.828q18.129,0,36.255,0a4.09,4.09,0,0,0,4.41-4.441c0-4.888.017-9.772-.014-14.66a12.021,12.021,0,0,0-.315-2.477c-.419-1.944-1.9-3.182-3.127-4.587a2.143,2.143,0,0,0-1.792-.764c-22.494.021-44.986.055-67.48-.038a7.117,7.117,0,0,0-5.749,2.3,8.863,8.863,0,0,0-2.74,6.479c.048,4.48.1,8.966-.014,13.442a4.428,4.428,0,0,0,4.746,4.787c11.937-.083,23.878-.035,35.819-.035m34.657-30.758c-.118-.363-.194-.636-.294-.9q-2.677-7.212-5.358-14.428c-.868-2.331-2.141-3.21-4.652-3.21H111.926c-2.522,0-3.777.865-4.649,3.2q-2.683,7.217-5.358,14.431c-.1.28-.187.571-.291.9h37.815a13.153,13.153,0,0,1,12.124-11.041,12.607,12.607,0,0,1,8.4,2.432,12.99,12.99,0,0,1,5.292,8.62ZM94.458,73.922a55.151,55.151,0,0,0,.038,5.521,3.911,3.911,0,0,0,3.926,3.463c1.73.042,3.463.055,5.192-.007a3.834,3.834,0,0,0,3.694-2.536c.668-1.736.2-3.559.339-5.4h-7.095c-2.069,0-4.158.142-6.095-1.038m67.916,1.038c0,1.408-.031,2.677.007,3.943a4.024,4.024,0,0,0,3.961,4c1.757.052,3.521.045,5.279,0a3.751,3.751,0,0,0,3.715-2.836,56.5,56.5,0,0,0,.356-6.074,12.945,12.945,0,0,1-2.338.737c-1.484.159-2.985.2-4.479.221-2.127.035-4.258.01-6.5.01m-1.145-34.587c-.37-3.639-4.4-7.126-8.368-7.257-4.611-.152-8.748,3.006-9.461,7.257Z" transform="translate(566.898 1931.323)" fill="#fff"/>
    <path id="Path_18" data-name="Path 18" d="M102.2,27.793c2.2,0,4.393-.01,6.59,0,1.747.007,2.428.668,2.435,2.394q.026,4.467,0,8.935c-.01,1.647-.74,2.369-2.394,2.373q-6.636.021-13.269,0c-1.664,0-2.411-.778-2.414-2.466q-.016-4.421,0-8.845c.007-1.65.726-2.376,2.373-2.39,2.228-.017,4.452,0,6.68,0m5.133,3.881H97.059v5.894h10.273Z" transform="translate(573.222 1955.332)" fill="#fff"/>
    <path id="Path_19" data-name="Path 19" d="M117.478,41.5c-2.169,0-4.334,0-6.5,0-1.8-.007-2.508-.713-2.515-2.522q-.01-4.379,0-8.758c.007-1.747.671-2.421,2.4-2.425q6.636-.016,13.269,0c1.695,0,2.4.733,2.4,2.449q.016,4.379,0,8.758c0,1.733-.747,2.487-2.473,2.5-2.2.01-4.393,0-6.59,0m-5.13-3.947h10.287v-5.87H112.348Z" transform="translate(610.884 1955.332)" fill="#fff"/>
    <path id="Path_20" data-name="Path 20" d="M111.34,28.394q4.2,0,8.409,0a6.063,6.063,0,0,1,1.121.073,1.859,1.859,0,0,1,.221,3.584,4.547,4.547,0,0,1-1.28.166q-8.535.016-17.074,0a4.625,4.625,0,0,1-1.024-.118,1.908,1.908,0,0,1-1.5-1.861,1.86,1.86,0,0,1,1.768-1.8c1.356-.066,2.715-.042,4.071-.048,1.764,0,3.525,0,5.289,0" transform="translate(590.612 1956.82)" fill="#fff"/>
    <path id="Path_21" data-name="Path 21" d="M111.376,30.092q4.161,0,8.323,0a6.082,6.082,0,0,1,1.2.1,1.861,1.861,0,0,1,.156,3.591,5.128,5.128,0,0,1-1.28.159q-8.494.01-16.991,0H102.7c-1.543-.01-2.491-.747-2.491-1.937s.93-1.909,2.5-1.913c2.888-.01,5.78,0,8.669,0" transform="translate(590.611 1960.992)" fill="#fff"/>
    <path id="Path_22" data-name="Path 22" d="M147.293,30.979A19.217,19.217,0,1,1,128.074,11.76a19.219,19.219,0,0,1,19.219,19.219" transform="translate(611.879 1915.919)" fill="#3ab54a"/>
    <path id="Path_23" data-name="Path 23" d="M141.9,28.736a16.066,16.066,0,1,1-16.064-16.064A16.063,16.063,0,0,1,141.9,28.736" transform="translate(614.117 1918.161)" fill="#fff"/>
    <path id="Path_24" data-name="Path 24" d="M135.714,19.784l-17.42,12.754L117,30.773l-6.188-8.451,4.8-3.518,3.961,5.424,12.954-9.485a18.691,18.691,0,0,1,2.19,3.047,19.764,19.764,0,0,1,.989,1.992" transform="translate(616.689 1923.257)" fill="#3ab54a"/>
  </g>
</svg>
