<svg xmlns="http://www.w3.org/2000/svg" width="171.668" height="171.668" viewBox="0 0 171.668 171.668">  <g id="Group_1" data-name="Group 1" transform="translate(-344.185 -1887)">    <path id="Path_1" data-name="Path 1" d="M171.668,85.834A85.834,85.834,0,1,1,85.834,0a85.836,85.836,0,0,1,85.834,85.834" transform="translate(344.185 1887)" fill="#3ab54a"/>    <path id="Path_5" data-name="Path 5" d="M10.76,34.768q0-10.834,0-21.664c0-2.612,1.449-4.078,4.037-4.082,7.489,0,14.978.014,22.47-.014a4.333,4.333,0,0,1,3.293,1.339q4.7,4.748,9.45,9.45a4.365,4.365,0,0,1,1.339,3.3q-.036,16.765-.017,33.532c0,2.594-1.46,4.04-4.078,4.04q-16.246.005-32.495,0a3.664,3.664,0,0,1-4-4q-.005-10.948,0-21.9m36.85-9.153c-3.428,0-6.728.01-10.028,0a2.729,2.729,0,0,1-2.8-2.245,9.771,9.771,0,0,1-.038-1.494c0-3.023,0-6.046,0-9.1H14.517V56.906H47.61Zm-9.129-3.784h7.907L38.481,13.9Z" transform="translate(370.645 1909.151)" fill="#fff"/>    <path id="Path_6" data-name="Path 6" d="M25.7,49.7q0-10.834,0-21.664c0-2.612,1.449-4.082,4.033-4.082,7.492-.007,14.981.014,22.47-.017a4.32,4.32,0,0,1,3.293,1.335q4.706,4.753,9.45,9.454a4.343,4.343,0,0,1,1.342,3.293q-.036,16.77-.014,33.532c0,2.6-1.46,4.044-4.075,4.044q-16.251.005-32.5,0a3.664,3.664,0,0,1-4-4q-.005-10.948,0-21.9M49.677,27.718H29.459v44.11H62.534V40.552H61.358q-4.26,0-8.527,0c-2.114,0-3.151-1.055-3.155-3.2,0-3.182,0-6.368,0-9.634m3.7,9.059h7.724c-2.5-2.511-5.178-5.189-7.724-7.738Z" transform="translate(407.368 1945.873)" fill="#fff"/>    <path id="Path_7" data-name="Path 7" d="M35.719,21.2H47.961c1.992,0,2.518.526,2.518,2.518,0,6.42-.01,12.837.01,19.253a1.906,1.906,0,0,1-1.467,2.165c-1.245.3-2.217-.619-2.221-2.079q-.016-8.416,0-16.832v-1.29H35.723c0,1.633-.028,3.269.007,4.9.021.989-.125,1.864-1.152,2.283a2.1,2.1,0,0,1-2.435-.8c-2.186-2.217-4.4-4.4-6.6-6.61-1.242-1.249-1.242-2.1-.01-3.345,2.248-2.262,4.514-4.5,6.759-6.773a1.971,1.971,0,0,1,2.269-.65,1.893,1.893,0,0,1,1.166,2.041c-.031,1.685-.01,3.369-.01,5.209m-6.251,1.6c.937.941,1.8,1.806,2.477,2.48v-4.9c-.934.91-1.8,1.761-2.477,2.421" transform="translate(404.712 1920.954)" fill="#fff"/>    <path id="Path_8" data-name="Path 8" d="M19.776,45.248H30.855c0-1.771.017-3.49-.01-5.206a1.868,1.868,0,0,1,1.1-1.961,1.917,1.917,0,0,1,2.28.574c2.3,2.318,4.621,4.611,6.918,6.929,1.079,1.09,1.086,2.017.021,3.092-2.293,2.321-4.614,4.614-6.915,6.932a1.945,1.945,0,0,1-2.276.612,1.917,1.917,0,0,1-1.131-2.058c.031-1.681.01-3.362.01-5.178H29.537q-5.588,0-11.173,0c-1.622,0-2.266-.616-2.266-2.19q-.01-9.786,0-19.578c0-1.4.64-2.176,1.785-2.2,1.2-.028,1.889.764,1.892,2.217q.005,8.349,0,16.7v1.318m14.795,4.39c.917-.851,1.83-1.695,2.491-2.311-.82-.937-1.629-1.864-2.491-2.847Z" transform="translate(383.76 1948.506)" fill="#fff"/>    <path id="Path_9" data-name="Path 9" d="M27.057,33.607q-6.169,0-12.339,0c-1.768,0-2.352-.585-2.356-2.335q-.005-5.993,0-11.989c0-1.671.609-2.269,2.3-2.269q12.453-.005,24.905,0c1.688,0,2.3.605,2.3,2.273q.005,6.05,0,12.107c0,1.588-.636,2.21-2.245,2.21q-6.283.01-12.567,0M16.092,29.84H38.133V20.757H16.092Z" transform="translate(374.58 1928.832)" fill="#fff"/>    <path id="Path_10" data-name="Path 10" d="M27.086,18.56c-4.227,0-8.454.014-12.681-.007-1.608-.007-2.594-1.494-1.743-2.715a2.412,2.412,0,0,1,1.688-.917c8.53-.059,17.064-.045,25.594-.035a1.841,1.841,0,1,1-.059,3.67c-4.265.01-8.534,0-12.8,0" transform="translate(374.551 1923.584)" fill="#fff"/>    <path id="Path_11" data-name="Path 11" d="M17.945,11.683c1.152,0,2.307-.014,3.459,0a1.841,1.841,0,1,1,.059,3.67q-3.575.031-7.15,0a1.841,1.841,0,1,1,.059-3.67c1.19-.017,2.383,0,3.573,0" transform="translate(374.584 1915.716)" fill="#fff"/>    <path id="Path_12" data-name="Path 12" d="M19.772,13.61a1.841,1.841,0,1,1-1.691-1.927,1.8,1.8,0,0,1,1.691,1.927" transform="translate(383.76 1915.718)" fill="#fff"/>    <path id="Path_13" data-name="Path 13" d="M41.976,48.54q-6.164,0-12.335,0c-1.757,0-2.345-.585-2.345-2.342q-.005-5.936,0-11.875c0-1.778.578-2.373,2.311-2.373q12.453-.005,24.905,0c1.678,0,2.286.605,2.29,2.283q.005,5.993,0,11.989c0,1.733-.6,2.318-2.373,2.318q-6.226.005-12.453,0M53.038,35.717h-22v9.09h22Z" transform="translate(411.302 1965.554)" fill="#fff"/>    <path id="Path_14" data-name="Path 14" d="M42.1,29.812q6.169,0,12.335,0c1.574,0,2.376.64,2.359,1.868-.017,1.186-.8,1.813-2.3,1.813q-12.453.005-24.905,0c-1.5,0-2.28-.626-2.3-1.813-.021-1.225.782-1.864,2.352-1.868q6.226-.005,12.453,0" transform="translate(411.306 1960.307)" fill="#fff"/>    <path id="Path_15" data-name="Path 15" d="M32.816,30.3c-1.19,0-2.383.017-3.573,0A1.8,1.8,0,0,1,27.3,28.483a1.775,1.775,0,0,1,1.9-1.858q3.632-.036,7.264,0a1.773,1.773,0,0,1,1.892,1.861A1.8,1.8,0,0,1,36.389,30.3c-1.19.021-2.383,0-3.573,0" transform="translate(411.306 1952.431)" fill="#fff"/>    <path id="Path_16" data-name="Path 16" d="M34.7,28.435a1.839,1.839,0,1,1-1.8-1.823,1.8,1.8,0,0,1,1.8,1.823" transform="translate(420.483 1952.441)" fill="#fff"/>  </g></svg>